/* XPM */
static char *e032b8343f7040d590c03afc8957d30dLa4SuEIHxDfl6xE4[] = {
/* columns rows colors chars-per-pixel */
"32 32 4 1 ",
"  c #1E3A5F",
". c #376294",
"X c #5A86B2",
"o c #85A9D0",
/* pixels */
"XXXX....    ooXXXXXX..    ooXXXX",
"XXXX....    ooXXXXXX..    ooXXXX",
"XX....      ooXXXX....    ooXXXX",
"XX....      ooXXXX....    ooXXXX",
"....  oooooo  ......  oooo  ....",
"....  oooooo  ......  oooo  ....",
"    ooooXXXXXX      ooXXXX..    ",
"    ooooXXXXXX      ooXXXX..    ",
"    ooXXXXXX..      ooXXXX..    ",
"    ooXXXXXX..      ooXXXX..    ",
"oo  ooXXXX..  oooooo  ......  oo",
"oo  ooXXXX..  oooooo  ......  oo",
"XX..  ....  ooXXXXXX..  ..  oooo",
"XX..  ....  ooXXXXXX..  ..  oooo",
"XX..      ooXXXXXXXX..      ooXX",
"XX..      ooXXXXXXXX..      ooXX",
"XX..      ooXXXXXXXX..      ooXX",
"XX..      ooXXXXXXXX..      ooXX",
"XX..  oooo  XXXXXX....      ooXX",
"XX..  oooo  XXXXXX....      ooXX",
"..  ooooXX..  ......  oooo..  ..",
"..  ooooXX..  ......  oooo..  ..",
"    ooXXXX..        ooXXXX..    ",
"    ooXXXX..        ooXXXX..    ",
"    ooXXXX..        ooXXXX..    ",
"    ooXXXX..        ooXXXX..    ",
"oooo  ......  oooooo  ......  oo",
"oooo  ......  oooooo  ......  oo",
"XXXX..      ooooXXXX..      ooXX",
"XXXX..      ooooXXXX..      ooXX",
"XXXX....    ooXXXXXX..    ooXXXX",
"XXXX....    ooXXXXXX..    ooXXXX"
}